<svg xmlns="http://www.w3.org/2000/svg" xmlns:xlink="http://www.w3.org/1999/xlink" width="100" zoomAndPan="magnify" viewBox="0 0 75 74.999997" height="100" preserveAspectRatio="xMidYMid meet" version="1.0"><defs><clipPath id="20c2e3659c"><path d="M 0.984375 0.984375 L 73.734375 0.984375 L 73.734375 73.734375 L 0.984375 73.734375 Z M 0.984375 0.984375 " clip-rule="nonzero"/></clipPath></defs><path fill="#000000" d="M 43.417969 27.625 C 41.984375 27.625 40.820312 28.789062 40.820312 30.222656 L 40.820312 48.578125 C 40.820312 50.015625 41.984375 51.175781 43.417969 51.175781 C 44.855469 51.175781 46.015625 50.015625 46.015625 48.578125 L 46.015625 30.222656 C 46.015625 28.789062 44.855469 27.625 43.417969 27.625 Z M 43.417969 27.625 " fill-opacity="1" fill-rule="nonzero"/><g clip-path="url(#20c2e3659c)"><path fill="#000000" d="M 37.359375 0.984375 C 17.269531 0.984375 0.984375 17.269531 0.984375 37.359375 C 0.984375 57.449219 17.269531 73.734375 37.359375 73.734375 C 57.449219 73.734375 73.734375 57.449219 73.734375 37.359375 C 73.734375 17.269531 57.449219 0.984375 37.359375 0.984375 Z M 52.945312 24.160156 L 52.945312 52.910156 C 52.945312 55.777344 50.617188 58.105469 47.75 58.105469 L 26.96875 58.105469 C 24.097656 58.105469 21.773438 55.777344 21.773438 52.910156 L 21.773438 24.160156 C 19.859375 24.160156 18.308594 22.613281 18.308594 20.699219 C 18.308594 18.785156 19.859375 17.234375 21.773438 17.234375 L 28.847656 17.234375 C 29.308594 17.234375 29.75 17.050781 30.074219 16.726562 L 32.523438 14.277344 C 32.847656 13.953125 33.289062 13.773438 33.746094 13.773438 L 40.972656 13.773438 C 41.429688 13.773438 41.871094 13.953125 42.195312 14.277344 L 44.644531 16.726562 C 44.96875 17.050781 45.410156 17.234375 45.867188 17.234375 L 52.945312 17.234375 C 54.855469 17.234375 56.40625 18.785156 56.40625 20.699219 C 56.40625 22.613281 54.855469 24.160156 52.945312 24.160156 Z M 52.945312 24.160156 " fill-opacity="1" fill-rule="nonzero"/></g><path fill="#000000" d="M 31.296875 27.625 C 29.863281 27.625 28.699219 28.789062 28.699219 30.222656 L 28.699219 48.578125 C 28.699219 50.015625 29.863281 51.175781 31.296875 51.175781 C 32.730469 51.175781 33.894531 50.015625 33.894531 48.578125 L 33.894531 30.222656 C 33.894531 28.789062 32.730469 27.625 31.296875 27.625 Z M 31.296875 27.625 " fill-opacity="1" fill-rule="nonzero"/></svg>