<svg xmlns="http://www.w3.org/2000/svg" xmlns:xlink="http://www.w3.org/1999/xlink" width="100" zoomAndPan="magnify" viewBox="0 0 75 74.999997" height="100" preserveAspectRatio="xMidYMid meet" version="1.0"><defs><clipPath id="778c04d86c"><path d="M 0.976562 0.976562 L 73.726562 0.976562 L 73.726562 73.726562 L 0.976562 73.726562 Z M 0.976562 0.976562 " clip-rule="nonzero"/></clipPath></defs><g clip-path="url(#778c04d86c)"><path fill="#ef2945" d="M 73.726562 37.351562 C 73.726562 38.542969 73.667969 39.730469 73.550781 40.914062 C 73.433594 42.101562 73.257812 43.277344 73.027344 44.445312 C 72.792969 45.613281 72.503906 46.769531 72.160156 47.910156 C 71.8125 49.050781 71.410156 50.167969 70.957031 51.269531 C 70.5 52.371094 69.992188 53.445312 69.429688 54.496094 C 68.867188 55.546875 68.257812 56.566406 67.59375 57.558594 C 66.933594 58.550781 66.222656 59.503906 65.46875 60.425781 C 64.710938 61.347656 63.914062 62.226562 63.070312 63.070312 C 62.226562 63.914062 61.347656 64.710938 60.425781 65.46875 C 59.503906 66.222656 58.550781 66.933594 57.558594 67.59375 C 56.566406 68.257812 55.546875 68.867188 54.496094 69.429688 C 53.445312 69.992188 52.371094 70.5 51.269531 70.957031 C 50.167969 71.410156 49.050781 71.8125 47.910156 72.160156 C 46.769531 72.503906 45.613281 72.792969 44.445312 73.027344 C 43.277344 73.257812 42.101562 73.433594 40.914062 73.550781 C 39.730469 73.667969 38.542969 73.726562 37.351562 73.726562 C 36.160156 73.726562 34.96875 73.667969 33.785156 73.550781 C 32.597656 73.433594 31.421875 73.257812 30.253906 73.027344 C 29.085938 72.792969 27.929688 72.503906 26.789062 72.160156 C 25.652344 71.8125 24.53125 71.410156 23.429688 70.957031 C 22.328125 70.5 21.253906 69.992188 20.203125 69.429688 C 19.152344 68.867188 18.132812 68.257812 17.140625 67.59375 C 16.152344 66.933594 15.195312 66.222656 14.273438 65.46875 C 13.351562 64.710938 12.472656 63.914062 11.628906 63.070312 C 10.785156 62.226562 9.988281 61.347656 9.230469 60.425781 C 8.476562 59.503906 7.765625 58.550781 7.105469 57.558594 C 6.441406 56.566406 5.832031 55.546875 5.269531 54.496094 C 4.707031 53.445312 4.199219 52.371094 3.742188 51.269531 C 3.289062 50.167969 2.886719 49.050781 2.542969 47.910156 C 2.195312 46.769531 1.90625 45.613281 1.671875 44.445312 C 1.441406 43.277344 1.265625 42.101562 1.148438 40.914062 C 1.035156 39.730469 0.976562 38.542969 0.976562 37.351562 C 0.976562 36.160156 1.035156 34.96875 1.148438 33.785156 C 1.265625 32.597656 1.441406 31.421875 1.671875 30.253906 C 1.90625 29.085938 2.195312 27.929688 2.542969 26.789062 C 2.886719 25.652344 3.289062 24.53125 3.742188 23.429688 C 4.199219 22.328125 4.707031 21.253906 5.269531 20.203125 C 5.832031 19.152344 6.441406 18.132812 7.105469 17.140625 C 7.765625 16.152344 8.476562 15.195312 9.230469 14.273438 C 9.988281 13.351562 10.785156 12.472656 11.628906 11.628906 C 12.472656 10.785156 13.351562 9.988281 14.273438 9.230469 C 15.195312 8.476562 16.152344 7.765625 17.140625 7.105469 C 18.132812 6.441406 19.152344 5.832031 20.203125 5.269531 C 21.253906 4.707031 22.328125 4.199219 23.429688 3.742188 C 24.53125 3.289062 25.652344 2.886719 26.789062 2.542969 C 27.929688 2.195312 29.085938 1.90625 30.253906 1.671875 C 31.421875 1.441406 32.597656 1.265625 33.785156 1.148438 C 34.96875 1.035156 36.160156 0.976562 37.351562 0.976562 C 38.542969 0.976562 39.730469 1.035156 40.914062 1.148438 C 42.101562 1.265625 43.277344 1.441406 44.445312 1.671875 C 45.613281 1.90625 46.769531 2.195312 47.910156 2.542969 C 49.050781 2.886719 50.167969 3.289062 51.269531 3.742188 C 52.371094 4.199219 53.445312 4.707031 54.496094 5.269531 C 55.546875 5.832031 56.566406 6.441406 57.558594 7.105469 C 58.550781 7.765625 59.503906 8.476562 60.425781 9.230469 C 61.347656 9.988281 62.226562 10.785156 63.070312 11.628906 C 63.914062 12.472656 64.710938 13.351562 65.46875 14.273438 C 66.222656 15.195312 66.933594 16.152344 67.59375 17.140625 C 68.257812 18.132812 68.867188 19.152344 69.429688 20.203125 C 69.992188 21.253906 70.5 22.328125 70.957031 23.429688 C 71.410156 24.53125 71.8125 25.652344 72.160156 26.789062 C 72.503906 27.929688 72.792969 29.085938 73.027344 30.253906 C 73.257812 31.421875 73.433594 32.597656 73.550781 33.785156 C 73.667969 34.96875 73.726562 36.160156 73.726562 37.351562 Z M 73.726562 37.351562 " fill-opacity="1" fill-rule="nonzero"/></g><path fill="#ffffff" d="M 28.054688 21.183594 C 32.277344 21.183594 35.941406 23.582031 37.753906 27.089844 C 39.570312 23.582031 43.234375 21.183594 47.453125 21.183594 C 53.480469 21.183594 58.367188 26.070312 58.367188 32.09375 C 58.367188 46.582031 41.855469 54.761719 37.972656 54.761719 C 33.410156 54.761719 17.144531 46.710938 17.144531 32.09375 C 17.144531 26.070312 22.027344 21.183594 28.054688 21.183594 Z M 28.054688 21.183594 " fill-opacity="1" fill-rule="evenodd"/></svg>